<?xml version="1.0" encoding="utf-8"?>
<!-- Generator: Adobe Illustrator 23.0.1, SVG Export Plug-In . SVG Version: 6.00 Build 0)  -->
<svg version="1.0" id="Layer_1" xmlns="http://www.w3.org/2000/svg" xmlns:xlink="http://www.w3.org/1999/xlink" x="0px" y="0px"
	 viewBox="0 0 158 158" style="enable-background:new 0 0 158 158;" xml:space="preserve">
<style type="text/css">
	.st0{fill:#F4712C;}
</style>
<path class="st0" d="M79,3c41.9,0,76,34.1,76,76s-34.1,76-76,76S3,120.9,3,79S37.1,3,79,3 M79,0C35.4,0,0,35.4,0,79s35.4,79,79,79
	s79-35.4,79-79S122.6,0,79,0z"/>
<g>
	<path class="st0" d="M58.2,53.3c1-0.4,2-0.8,3-1.1c2.3-0.7,1.6-4.4-0.8-3.7c-1.2,0.4-2.5,0.8-3.7,1.3c0.1,1.1,0.4,2.1,1.1,3.1
		C58,53,58.1,53.2,58.2,53.3z"/>
	<path class="st0" d="M129.7,94.2L92,40l0,0c0,0-0.1-0.1-0.3-0.4c-0.4-0.7-1.4-2-2.2-2.6c-0.2-0.1-0.3-0.2-0.4-0.3
		c-0.1,0-0.2-0.1-0.5-0.1c-2.8-0.8-16.3-3.6-23.3-5c-2.4-0.5-4.1-0.8-4.1-0.8l0,0l-6.6,4.6l0,0l-1,0.7l-1,0.7l0,0L46,41.4l0,0
		c0,0-0.2,1.6-0.6,4.1c-0.5,3.1-1.2,7.5-1.8,11.6c4.1-2.8,8.5-5.4,13-7.2c-0.2-2.1,0.8-4.3,2.7-5.6c2.8-2,6.7-1.3,8.7,1.6
		c2,2.8,1.3,6.7-1.6,8.7c-2.7,1.9-6.3,1.3-8.4-1.1c-2.7,1.1-5.2,2.6-7.7,4.1c-2.6,1.5-5.1,3.1-7.5,4.8c-0.4,3.1-0.8,5.6-0.9,6.7
		c0,0.3,0,0.5,0,0.5c0,0.1,0.1,0.3,0.1,0.5c0.3,1,1.2,2.3,1.7,3c0.2,0.2,0.3,0.4,0.3,0.4l0,0l0.7,1.1l0,0l5.4,7.7
		c-0.1,0.4-0.2,0.7-0.2,1.1c-0.9,4.2-2.1,8.4-4.4,12c-2.2,3.5-6.4,6.8-10.8,6.6c-5.1-0.2-8.4-6.2-8.6-10.7c-0.2-5.4,1.9-11,4.5-15.7
		c3-5.5,7.3-9.6,12.3-13.2c0.2-1.6,0.5-3.4,0.8-5.2c-2.2,1.5-4.2,3-6.2,4.6C30.1,67.3,24.9,76,23,85.2c-1,4.9-0.8,9.8,2,14.1
		c2.6,4.1,6.9,6.6,11.9,6.2c4.2-0.4,8.1-3.5,10.7-6.6c2.7-3.2,4.2-7.4,5.2-11.3c0.1-0.4,0.2-0.9,0.3-1.3l5.9,8.4l0,0l22.7,32.7
		c0.1,0.1,0.1,0.2,0.2,0.2l0,0l47.8-33.2l0,0C129.8,94.3,129.7,94.2,129.7,94.2z M101.1,97.5l-5.9,4.2l-2.3-3.3
		c-6.3,3.7-12.7,4.9-17.4,3.6l2.1-8.6c4.5,0.4,9.7-0.8,13-3.1c3.2-2.3,4-4,3-5.4c-2.7-3.8-21.1,10.3-27.6,1
		c-3.1-4.4-1.5-11.6,5.8-17.9l-2.4-3.4l5.9-4.2l2.4,3.4c5.7-3.2,11.3-3.6,16-2.6l-3.1,8.3c-4.3-0.3-8.1,0.5-11.2,2.7
		c-2.6,1.9-3.6,3.6-2.7,4.9c2.9,4.1,21-10.4,27.5-1.1c3.4,4.8,1.6,11.9-5.5,18.2L101.1,97.5z"/>
</g>
</svg>
