<?xml version="1.0" encoding="utf-8"?>
<!-- Generator: Adobe Illustrator 23.0.1, SVG Export Plug-In . SVG Version: 6.00 Build 0)  -->
<svg version="1.0" id="Layer_1" xmlns="http://www.w3.org/2000/svg" xmlns:xlink="http://www.w3.org/1999/xlink" x="0px" y="0px"
	 viewBox="0 0 158 158" style="enable-background:new 0 0 158 158;" xml:space="preserve">
<style type="text/css">
	.st0{fill:#F4712C;}
</style>
<path class="st0" d="M79,3c41.9,0,76,34.1,76,76s-34.1,76-76,76S3,120.9,3,79S37.1,3,79,3 M79,0C35.4,0,0,35.4,0,79s35.4,79,79,79
	s79-35.4,79-79S122.6,0,79,0z"/>
<g>
	<g>
		<polygon class="st0" points="37.3,48.8 38.9,50.2 36.1,53.5 40.3,57.1 43.1,53.8 44.8,55.3 41.9,58.5 45.9,61.9 51.4,55.5 
			53.1,56.9 47.5,63.4 52.2,67.4 55.1,64.1 56.7,65.6 53.9,68.9 58.1,72.5 61,69.2 62.6,70.6 59.8,73.9 61.8,75.7 74.7,64.4 
			41.5,35.6 30.3,48.5 34.4,52.1 		"/>
		<polygon class="st0" points="84.6,92.7 83.3,94.3 87.8,98.2 90.7,94.9 92.3,96.3 89.5,99.6 93.7,103.2 96.5,99.9 98.2,101.4 
			95.3,104.6 99.5,108.3 105.1,101.9 106.8,103.3 101.2,109.7 105.6,113.5 108.5,110.3 110.1,111.7 107.3,115 111.5,118.6 
			114.3,115.3 116,116.7 113.1,120 116.7,123.1 127.9,110.2 96,82.8 		"/>
	</g>
	<g>
		<path class="st0" d="M125.2,47.6l-69.1,60.5l-0.9-1l0,0l69-60.5l-5.2-6.4l-69.4,60.5l-2-2.3l69-60.5l-3.6-2.5L44.8,95.1
			l-10.5,23.2l0.4,0.4l24.1-7.3l68.3-59.9L125.2,47.6z M44.7,114.3l-4.6-5.4l5.2-11.3l11.3,13L44.7,114.3z"/>
	</g>
</g>
</svg>
