<?xml version="1.0" encoding="utf-8"?>
<!-- Generator: Adobe Illustrator 23.0.1, SVG Export Plug-In . SVG Version: 6.00 Build 0)  -->
<svg version="1.0" id="Layer_1" xmlns="http://www.w3.org/2000/svg" xmlns:xlink="http://www.w3.org/1999/xlink" x="0px" y="0px"
	 viewBox="0 0 158 158" style="enable-background:new 0 0 158 158;" xml:space="preserve">
<style type="text/css">
	.st0{fill:#F4712C;}
	.st1{fill-rule:evenodd;clip-rule:evenodd;fill:#F4712C;}
</style>
<g>
	<g>
		<path class="st0" d="M79,3c41.9,0,76,34.1,76,76s-34.1,76-76,76S3,120.9,3,79S37.1,3,79,3 M79,0C35.4,0,0,35.4,0,79s35.4,79,79,79
			s79-35.4,79-79S122.6,0,79,0L79,0z"/>
	</g>
</g>
<g>
	<path class="st1" d="M117.5,55.5l-0.5-1.8l-2.7-14.1h-1.6h-65H46l-2.7,14.2l-0.5,1.7L27.6,78.1h105.1L117.5,55.5z M68.8,69.9H55
		V56.3l7-5.8l6.7,5.8V69.9z M105.4,69.9H91.5V56.3l7-5.8l6.7,5.8v13.5H105.4z"/>
	<path class="st1" d="M39.3,80.5v30.3h33.5V91.3h14.4v19.5h33.9V80.5H39.3z M53.4,103.9h-6.5v-8.3h6.5V103.9z M65.5,103.9H59v-8.3
		h6.5V103.9z M101.3,103.9h-6.5v-8.3h6.5V103.9z M113.5,103.9H107v-8.3h6.5V103.9z"/>
</g>
</svg>
